<mxfile host="app.diagrams.net" modified="2023-12-06T08:48:46.433Z" agent="Mozilla/5.0 (Macintosh; Intel Mac OS X 10_15_7) AppleWebKit/537.36 (KHTML, like Gecko) Chrome/116.0.0.0 Safari/537.36" version="22.1.5" etag="EwJh7HDJzsgJ5LXKdqzc" type="github">
  <diagram name="第 1 页" id="VEZuiPWOyS5Thi3j2-d4">
    <mxGraphModel>
      <root>
        <mxCell id="0" />
        <mxCell id="1" parent="0" />
      </root>
    </mxGraphModel>
  </diagram>
</mxfile>
